<?xml version="1.0" standalone="no"?>
<!DOCTYPE svg PUBLIC "-//W3C//DTD SVG 20010904//EN"
 "http://www.w3.org/TR/2001/REC-SVG-20010904/DTD/svg10.dtd">
<svg version="1.0" xmlns="http://www.w3.org/2000/svg"
 width="1079.000000pt" height="1078.000000pt" viewBox="0 0 1079.000000 1078.000000"
 preserveAspectRatio="xMidYMid meet">

<g transform="translate(0.000000,1078.000000) scale(0.100000,-0.100000)"
fill="#000000" stroke="none">
<path d="M0 5390 l0 -5390 5395 0 5395 0 0 5390 0 5390 -5395 0 -5395 0 0
-5390z m6368 4711 c73 -34 158 -63 267 -90 177 -44 537 -163 680 -224 34 -14
125 -44 203 -67 l143 -41 237 -161 c130 -88 255 -174 277 -191 65 -50 156
-129 153 -133 -7 -7 -179 37 -278 71 -90 31 -113 35 -161 30 -51 -6 -62 -4
-111 24 -45 25 -66 31 -117 31 -38 0 -84 8 -119 21 -98 36 -98 36 -121 -10
-12 -22 -21 -48 -21 -58 0 -29 -94 -118 -145 -137 -44 -17 -75 -54 -75 -90 0
-20 -34 -29 -76 -21 -30 5 -34 9 -34 37 0 29 1 30 13 14 9 -12 23 -17 42 -14
27 3 32 10 60 90 20 58 27 90 20 97 -9 9 -103 20 -302 38 -62 5 -96 -2 -185
-39 -40 -17 -49 -26 -58 -57 -5 -20 -27 -54 -49 -75 -26 -26 -51 -66 -73 -118
-35 -87 -47 -97 -180 -149 -29 -11 -79 -32 -110 -46 l-57 -25 -7 -54 c-6 -54
-7 -54 -84 -109 -42 -30 -83 -61 -90 -70 -8 -9 -39 -29 -70 -45 -65 -33 -73
-41 -90 -93 -8 -26 -24 -46 -50 -62 -68 -43 -101 -101 -80 -140 11 -20 9 -29
-15 -67 l-27 -43 8 40 c3 22 6 59 5 82 -2 56 19 95 71 130 41 27 43 32 48 87
5 52 10 62 40 88 19 16 46 31 59 35 22 5 23 9 18 61 -5 51 -10 60 -64 114 -68
68 -84 71 -185 32 -75 -30 -86 -47 -90 -137 -1 -46 -5 -51 -53 -90 -28 -23
-61 -49 -74 -57 -28 -19 -40 -74 -41 -187 0 -81 0 -82 -32 -106 -50 -36 -88
-48 -165 -51 -55 -2 -79 -8 -114 -29 -70 -41 -151 -124 -158 -160 -5 -22 -13
-33 -27 -35 -29 -4 -58 -57 -50 -93 5 -27 -1 -34 -83 -99 -67 -53 -90 -77 -94
-100 -11 -51 -91 -68 -134 -28 -19 17 -27 19 -46 11 -52 -24 -87 -65 -103
-121 -9 -31 -22 -62 -29 -69 -7 -7 -18 -35 -25 -63 -7 -27 -16 -50 -21 -50 -4
0 -52 22 -106 50 -81 41 -93 49 -67 50 42 0 60 17 83 78 29 74 27 99 -9 120
-16 9 -30 21 -30 25 0 4 23 65 51 135 28 70 66 170 84 222 19 53 48 125 64
160 34 71 37 92 18 108 -20 17 -305 -125 -335 -167 -21 -28 -26 -31 -61 -25
-33 5 -46 1 -83 -24 -23 -16 -72 -44 -108 -62 -61 -31 -71 -33 -180 -34 -131
-3 -142 -10 -92 -68 16 -18 32 -45 36 -60 3 -15 21 -37 39 -49 17 -13 64 -49
102 -80 l70 -57 125 24 c110 21 128 27 147 51 13 16 23 31 23 35 0 17 51 121
56 115 3 -3 -9 -48 -28 -101 -30 -87 -35 -96 -58 -96 -14 0 -30 -4 -37 -8 -16
-10 -53 -130 -46 -148 4 -11 -5 -10 -38 5 -74 32 -335 154 -516 240 -120 58
-178 81 -193 76 -11 -3 -20 -9 -20 -13 0 -4 115 -59 255 -122 140 -63 251
-116 246 -118 -7 -2 -248 85 -432 156 l-27 11 11 -35 c8 -25 7 -66 -1 -147
-14 -135 -41 -236 -70 -265 -26 -26 -56 -82 -48 -90 3 -3 57 -9 118 -13 129
-10 195 -21 288 -51 100 -32 220 -96 220 -118 0 -5 -20 -16 -45 -26 l-46 -17
-167 51 c-371 113 -832 219 -832 190 0 -15 77 -45 193 -74 59 -14 107 -30 107
-33 0 -4 -38 -1 -85 8 -97 17 -157 8 -163 -22 -5 -27 22 -51 103 -92 75 -37
130 -87 174 -158 l24 -39 -39 -39 c-21 -21 -44 -39 -51 -39 -7 0 -13 -4 -13
-9 0 -5 -21 -29 -46 -53 -25 -23 -57 -62 -70 -85 -18 -30 -37 -46 -70 -60 -36
-15 -46 -24 -54 -53 -5 -19 -10 -40 -10 -46 0 -26 -42 -64 -70 -64 -21 0 -36
-9 -56 -35 -14 -19 -31 -35 -37 -35 -5 0 -26 -12 -46 -27 -76 -59 -285 -180
-323 -189 -19 -4 -30 -14 -34 -30 -8 -31 -14 -30 -44 6 l-25 31 -35 -30 c-28
-23 -42 -28 -68 -24 -23 4 -38 0 -52 -12 -26 -24 -26 -27 14 -82 l34 -47 -34
-74 c-19 -41 -38 -92 -44 -113 -10 -38 -12 -39 -55 -39 -41 0 -46 -3 -77 -47
-19 -29 -34 -42 -35 -33 -3 15 -43 423 -43 434 0 18 -18 0 -42 -42 -30 -54
-72 -97 -86 -88 -12 7 -26 113 -26 196 -1 54 7 83 42 170 50 120 50 102 -3
335 -46 199 -83 404 -91 504 -8 91 5 129 84 245 32 47 62 109 87 181 36 104
41 113 98 165 33 30 84 73 114 95 29 23 60 51 69 63 11 16 25 22 52 22 27 0
54 11 97 41 101 67 111 72 141 56 22 -12 33 -11 72 0 78 24 87 33 109 108 7
24 17 33 56 45 36 12 57 28 94 72 27 32 58 65 70 73 13 9 68 25 124 35 56 11
109 25 118 32 9 7 45 38 81 70 63 55 74 59 335 155 l270 98 125 0 c97 0 132 4
155 16 17 9 80 43 140 74 61 31 130 68 155 81 44 23 687 220 755 231 26 4 45
20 85 69 29 35 65 74 82 85 44 31 29 32 -39 2 -47 -20 -65 -35 -77 -60 -22
-45 -54 -57 -246 -87 -91 -14 -236 -41 -324 -60 l-159 -33 -48 18 c-27 11 -59
19 -72 19 -13 0 -51 -26 -90 -60 -38 -33 -74 -61 -80 -62 -7 0 -42 -2 -78 -2
l-66 -1 -74 -64 c-116 -99 -130 -103 -301 -92 -159 11 -223 28 -316 86 -38 23
-76 38 -108 41 -50 6 -51 6 -112 -51 -58 -53 -62 -60 -62 -101 0 -34 -4 -44
-16 -44 -70 0 -156 -61 -167 -119 -4 -18 -27 -54 -54 -82 l-47 -50 -106 6
-105 7 -33 -51 c-18 -28 -37 -51 -43 -51 -21 0 -109 51 -109 63 0 8 24 40 53
73 29 32 72 86 94 119 23 34 108 145 191 249 106 132 152 198 157 223 10 56
24 78 74 116 63 48 390 235 742 425 127 68 361 172 388 172 14 0 54 -10 88
-22 56 -20 67 -21 110 -10 55 15 272 100 289 113 7 5 17 29 23 53 18 73 31 80
196 120 261 62 586 113 865 136 74 6 196 18 270 26 74 9 202 19 285 23 l150 6
93 -32 c51 -18 141 -55 200 -82z m683 -941 c10 -6 19 -16 19 -22 0 -9 -3 -9
-12 0 -23 23 -54 12 -98 -33 -51 -52 -73 -60 -38 -14 60 80 84 93 129 69z
m1291 -332 l49 -31 37 17 c36 18 37 18 58 -7 12 -14 30 -27 40 -29 28 -5 58
-57 92 -160 17 -52 43 -115 58 -142 28 -51 164 -364 164 -379 0 -6 -49 -6
-116 -2 -93 6 -116 5 -112 -6 5 -16 -1 -13 228 -115 107 -48 196 -88 198 -89
1 -1 14 -49 28 -106 35 -147 71 -264 105 -338 53 -117 296 -481 357 -535 27
-23 29 -98 8 -239 -8 -50 -19 -132 -26 -182 -7 -49 -21 -119 -31 -154 -18 -61
-28 -143 -49 -426 -8 -113 -15 -148 -54 -265 -25 -74 -46 -143 -46 -153 0 -11
-38 -57 -85 -103 -61 -61 -93 -102 -116 -151 -43 -90 -38 -138 30 -299 28 -67
51 -127 51 -134 0 -6 24 -64 54 -128 29 -64 57 -128 61 -142 13 -45 35 -61 81
-59 42 3 61 -8 171 -98 12 -9 13 -24 4 -88 -6 -42 -11 -98 -11 -125 0 -46 -2
-50 -62 -106 -35 -32 -108 -93 -163 -137 -55 -43 -162 -138 -237 -210 -130
-125 -138 -134 -138 -170 0 -23 -8 -49 -19 -62 -15 -20 -17 -32 -10 -76 8 -50
7 -54 -38 -123 -25 -39 -56 -84 -69 -99 -13 -16 -22 -33 -19 -38 3 -4 -1 -19
-9 -31 -8 -13 -18 -52 -21 -88 -4 -36 -21 -112 -38 -169 l-32 -103 -64 -49
c-35 -27 -67 -49 -72 -49 -8 0 -21 50 -23 87 -2 28 -39 68 -95 101 -39 23 -44
24 -53 9 -8 -15 -14 -14 -61 9 -67 34 -136 90 -148 120 -8 22 -13 24 -49 18
-31 -5 -40 -3 -40 8 0 8 5 19 10 24 8 8 -4 30 -36 74 -40 55 -45 66 -35 83 10
15 9 22 -3 36 -19 21 -21 32 -3 26 9 -4 13 14 15 67 1 40 7 88 13 107 13 39 4
153 -16 212 -20 55 -63 106 -111 130 -36 17 -53 19 -125 13 -46 -4 -88 -13
-94 -19 -14 -17 -71 -35 -111 -35 -19 0 -34 -5 -34 -11 0 -7 -11 -8 -30 -4
-16 4 -34 4 -40 0 -17 -10 16 -61 55 -85 31 -19 41 -36 36 -63 -1 -5 7 -20 18
-35 19 -27 20 -67 5 -134 -4 -20 -2 -29 9 -34 9 -3 13 -13 10 -25 -3 -12 7
-39 25 -68 16 -27 27 -53 23 -58 -12 -19 -50 -33 -90 -33 l-40 0 14 -46 c8
-26 19 -52 24 -57 15 -15 14 -62 -1 -75 -7 -5 -24 -12 -38 -14 -18 -2 -26 -10
-28 -28 -5 -48 -25 -116 -57 -195 -18 -44 -37 -98 -44 -121 -6 -23 -25 -59
-42 -80 -40 -50 -71 -110 -67 -131 2 -12 -15 -22 -64 -38 -41 -13 -71 -18 -76
-13 -6 6 -22 4 -40 -6 -43 -22 -47 -21 -58 21 -6 24 -17 42 -31 48 -31 13 -52
81 -188 607 -61 239 -109 405 -119 415 -20 20 -67 -84 -91 -199 -21 -98 -19
-158 9 -236 13 -37 67 -190 120 -341 l97 -274 -25 -26 c-31 -33 -32 -42 -6
-66 26 -23 25 -31 -5 -67 l-25 -30 20 -27 c38 -54 96 -99 139 -106 29 -5 41
-12 41 -23 0 -24 35 -79 58 -91 30 -16 86 5 121 45 37 42 39 68 6 116 l-25 36
30 7 c19 4 30 13 30 24 0 14 14 19 69 27 l70 9 6 -45 c4 -34 0 -63 -20 -118
-22 -62 -24 -79 -15 -105 10 -28 6 -49 -39 -180 -56 -162 -93 -242 -140 -300
-36 -46 -32 -32 -76 -241 -53 -245 -66 -282 -124 -347 -27 -30 -70 -72 -95
-92 -44 -36 -46 -37 -73 -23 -57 31 -57 31 -33 64 l23 30 -21 27 c-49 62 -93
105 -102 100 -6 -4 -68 46 -139 110 -124 112 -129 118 -118 142 10 23 8 28
-22 52 -23 19 -44 55 -71 120 l-39 93 25 21 c35 31 24 50 -55 96 -70 42 -102
78 -81 91 9 6 7 11 -6 18 -40 23 0 25 71 4 78 -23 185 -30 185 -12 0 30 -82
146 -193 275 -37 42 -38 55 -6 55 24 0 94 63 86 77 -4 6 -51 15 -105 19 l-97
8 115 11 c130 14 182 24 176 33 -2 4 15 8 38 8 44 1 149 41 141 54 -9 15 -101
31 -178 31 -69 0 -83 -3 -105 -23 l-24 -23 7 23 c6 21 4 22 -22 17 -93 -21
-167 -49 -197 -76 -28 -24 -50 -32 -119 -43 -145 -24 -187 -55 -207 -152 -28
-132 -93 -282 -135 -310 -14 -9 -22 -20 -19 -25 8 -14 71 -11 111 6 46 19 53
19 53 -3 0 -10 7 -27 15 -39 13 -19 11 -25 -25 -76 -21 -31 -35 -59 -29 -62
17 -11 9 -22 -23 -31 -28 -8 -35 -18 -53 -69 -12 -33 -38 -93 -58 -132 -20
-40 -37 -79 -37 -86 0 -8 17 -35 37 -61 29 -38 38 -60 44 -109 7 -57 5 -67
-24 -127 -29 -60 -32 -73 -32 -164 l0 -100 -57 -24 -58 -25 -105 23 -106 23
-106 -46 c-59 -26 -108 -45 -111 -43 -2 2 -7 47 -12 100 -6 71 -15 109 -36
153 l-28 58 3 195 c3 171 5 199 22 226 18 29 18 34 3 85 -30 99 -45 127 -80
148 -19 11 -34 27 -34 36 0 26 38 54 81 61 51 8 91 41 111 91 42 106 87 258
79 266 -5 5 -37 2 -78 -6 -53 -11 -81 -12 -120 -4 l-52 11 -12 70 c-10 54 -20
81 -46 112 -29 37 -44 44 -139 73 -63 20 -115 30 -130 27 -38 -10 -87 -60
-144 -146 -46 -70 -57 -81 -79 -78 l-26 3 -7 129 c-7 115 -6 131 10 142 21 15
33 9 26 -14 -4 -10 4 -6 20 11 46 49 44 74 -9 161 -28 46 -57 65 -103 66 -81
0 -146 -67 -193 -200 -13 -36 -52 -105 -86 -154 -65 -92 -69 -105 -54 -184 8
-42 7 -45 -41 -100 -27 -31 -64 -89 -83 -128 -25 -51 -46 -79 -78 -102 -105
-75 -132 -122 -84 -142 12 -5 33 -19 47 -30 23 -18 29 -19 75 -6 68 18 129 50
264 140 89 59 117 73 128 65 11 -9 2 -24 -43 -75 -30 -35 -53 -68 -50 -73 3
-5 -25 -62 -62 -127 l-69 -119 -1 -179 -1 -180 -51 -19 -51 -19 -42 29 c-23
15 -97 84 -165 153 l-123 125 7 65 c3 36 16 157 29 270 41 357 41 351 11 379
-23 21 -26 33 -26 87 l0 63 -35 6 c-19 3 -51 8 -71 11 -28 4 -35 9 -31 22 3 9
17 58 31 107 13 50 32 110 40 134 20 54 62 213 71 263 6 37 5 38 -45 63 -28
14 -75 50 -104 79 -29 30 -73 63 -99 74 -25 11 -61 35 -79 54 -99 99 -279 258
-320 281 l-47 27 -135 -50 c-75 -27 -156 -54 -180 -60 -25 -5 -68 -19 -95 -30
-53 -21 -57 -20 -42 9 8 13 -9 39 -81 126 -282 343 -321 386 -367 410 -71 36
-88 60 -96 136 -6 59 -4 70 17 105 13 21 22 49 20 61 -6 39 -44 69 -98 76 -76
11 -282 83 -354 125 -41 24 -70 49 -80 69 -8 16 -22 37 -31 46 -12 12 -19 43
-24 109 -4 51 -11 111 -15 132 -7 33 -5 44 15 70 12 17 32 50 44 73 11 23 29
44 38 47 10 3 37 10 61 16 24 6 64 27 88 46 25 19 49 34 54 34 11 0 129 168
171 245 29 53 38 63 44 48 4 -10 22 -60 41 -111 47 -129 71 -172 94 -172 10 0
22 5 25 10 13 21 23 8 28 -36 5 -49 35 -89 95 -126 17 -11 32 -23 32 -27 0 -4
-81 -16 -180 -25 -223 -22 -234 -25 -238 -58 -5 -45 39 -55 245 -60 62 -2 113
-5 113 -6 0 -2 -10 -12 -22 -22 -49 -40 -19 -45 305 -50 166 -3 289 -8 272
-12 -56 -13 -230 -22 -377 -19 -106 2 -148 -1 -153 -10 -6 -9 -1 -10 19 -7 14
3 26 1 26 -3 0 -5 -42 -9 -92 -9 -108 0 -178 -24 -178 -60 0 -33 43 -43 215
-48 142 -4 161 -7 173 -23 9 -13 25 -19 51 -19 46 0 54 -6 40 -32 -8 -16 -7
-24 5 -36 14 -14 20 -14 69 1 50 16 208 25 194 11 -3 -3 -30 -10 -59 -15 -45
-7 -39 -8 37 -4 54 2 108 10 135 21 53 21 297 33 285 15 -3 -6 -32 -11 -63
-11 -31 0 -64 -5 -72 -10 -10 -7 16 -10 82 -10 57 0 100 -4 103 -10 5 -7 68
-10 183 -8 98 2 243 1 324 -1 125 -3 151 -2 172 13 30 19 34 42 9 50 -44 12
-141 26 -189 26 -61 0 -82 17 -27 22 50 4 287 -9 313 -17 14 -5 19 -12 15 -24
-12 -40 17 -46 236 -49 211 -3 249 2 249 34 0 19 -58 44 -102 44 -57 1 -13 15
206 66 158 36 221 56 259 79 28 16 53 36 55 44 5 14 -10 14 -160 -5 -27 -4
-48 -3 -48 2 0 5 13 24 28 42 23 28 36 34 92 42 36 5 97 10 135 10 82 1 357
34 375 45 10 6 9 11 -5 22 -11 7 -27 13 -36 13 -10 0 -40 11 -68 25 l-50 26
-161 -12 c-89 -6 -163 -9 -165 -7 -2 2 31 60 74 128 64 103 83 127 109 135 28
8 34 17 56 82 l25 73 -29 -15 c-33 -17 -145 -45 -175 -44 -23 1 -11 5 90 35
54 16 71 28 173 128 95 93 112 115 112 141 0 20 10 42 30 63 26 29 33 32 67
26 35 -5 41 -2 77 35 32 32 37 43 27 55 -12 15 51 75 352 330 70 60 127 114
127 121 0 7 -7 18 -15 25 -17 14 -80 -7 -130 -44 -16 -12 -57 -37 -90 -56 -33
-18 -99 -59 -148 -92 -48 -32 -94 -61 -102 -64 -30 -12 -201 139 -286 251 -45
60 -117 197 -125 240 -3 17 -2 60 3 95 5 36 7 72 5 81 -4 23 -150 103 -507
279 -267 131 -694 331 -770 360 -15 6 -26 13 -23 15 7 7 179 -51 318 -107 69
-28 209 -93 312 -144 103 -52 190 -94 193 -94 3 0 1 9 -5 20 -6 11 -9 20 -7
20 26 0 357 -130 461 -181 43 -22 81 -38 83 -36 13 14 -153 110 -313 182 l-94
42 -4 139 c-4 138 -20 230 -65 381 l-21 68 -124 70 c-68 39 -122 72 -120 74 2
2 57 -26 124 -63 103 -57 123 -65 141 -55 15 8 24 8 32 0 16 -16 31 -13 17 4
-10 12 -7 15 14 21 14 3 33 3 42 0 9 -3 34 -1 55 4 32 9 39 15 39 35 0 17 13
34 44 58 36 27 59 36 126 46 63 9 95 20 134 46 28 18 83 51 121 73 50 29 77
52 95 82 56 93 57 93 124 86 l60 -6 126 71 c69 40 141 87 161 106 39 37 120
62 202 63 34 0 45 7 84 51 56 62 134 102 239 124 63 13 86 23 114 49 30 28 57
38 180 70 192 49 288 88 390 157 47 32 111 66 144 75 48 15 63 25 82 56 14 21
24 53 24 73 0 51 19 53 95 11 77 -42 90 -43 201 -14 74 19 85 25 101 55 10 18
19 33 22 33 2 0 49 7 105 16 86 13 113 22 180 61 73 42 83 45 111 34 44 -15
65 -14 100 8 17 10 51 21 76 25 24 4 58 15 74 26 49 31 119 26 177 -12z
m-4282 -1200 c0 -7 -5 -30 -11 -52 -7 -25 -14 -35 -21 -28 -6 6 -5 23 3 51 11
39 29 56 29 29z m110 -28 c0 -21 -29 -80 -39 -80 -15 0 -14 11 4 54 14 34 35
49 35 26z m50 -9 c0 -5 -9 -31 -20 -57 -14 -31 -24 -44 -31 -37 -11 11 24 103
41 103 5 0 10 -4 10 -9z m20 -66 c-12 -42 -30 -61 -30 -31 0 21 30 89 37 82 3
-3 0 -26 -7 -51z m-350 -571 c0 -22 -3 -24 -22 -18 -33 10 -35 14 -14 30 28
20 36 18 36 -12z m-660 -557 c0 -13 -9 -32 -20 -42 -11 -10 -20 -24 -20 -31 0
-14 -47 -50 -55 -42 -12 11 25 94 51 115 36 29 44 29 44 0z m-109 -90 c-12
-36 -27 -47 -61 -47 -15 0 -18 4 -12 20 7 19 73 72 80 65 2 -2 -1 -19 -7 -38z
m-86 -19 c-2 -7 -27 -92 -55 -188 -28 -96 -69 -229 -90 -295 -43 -137 -56
-188 -41 -165 6 8 14 11 18 6 7 -7 -23 -37 -72 -71 -20 -14 -195 -47 -195 -37
0 13 94 178 106 185 14 8 34 68 34 103 0 25 -130 138 -223 194 -93 56 -72 66
56 25 43 -14 84 -25 92 -25 17 0 88 49 185 126 46 37 70 64 79 91 19 55 29 63
72 63 26 0 37 -4 34 -12z m145 -45 c0 -49 -9 -61 -50 -69 -30 -6 -33 -5 -26
12 4 10 10 32 13 47 5 25 28 44 56 46 4 1 7 -16 7 -36z m-80 -7 c0 -7 -5 -27
-11 -45 -9 -25 -16 -31 -40 -31 -31 0 -36 12 -20 54 6 13 20 26 33 29 13 2 26
5 31 6 4 0 7 -5 7 -13z m52 -112 c-6 -29 -14 -41 -35 -48 -34 -12 -41 -5 -33
37 5 28 13 36 39 44 17 5 33 9 35 8 1 -1 -1 -19 -6 -41z m-84 -15 c-8 -29 -15
-39 -25 -35 -8 4 -23 6 -34 6 -16 0 -18 5 -13 28 10 40 12 42 49 42 l33 0 -10
-41z m-30 -49 c10 0 12 -9 7 -32 -10 -47 -12 -48 -46 -36 -25 8 -30 15 -25 32
3 11 6 27 6 35 0 9 7 11 23 7 12 -3 28 -6 35 -6z m102 -5 c0 -3 -10 -21 -22
-40 -15 -23 -31 -35 -45 -35 -26 0 -27 5 -12 49 9 27 16 31 45 31 19 0 34 -2
34 -5z m1733 -54 c26 -57 93 -158 149 -223 45 -52 166 -156 213 -184 16 -9 10
-16 -49 -60 -73 -53 -85 -55 -152 -22 l-41 20 -51 -26 c-57 -29 -64 -48 -29
-76 12 -10 20 -20 17 -23 -3 -3 -43 -24 -89 -47 -47 -23 -125 -64 -174 -92
-79 -43 -94 -49 -128 -43 -38 7 -40 5 -54 -30 -9 -20 -13 -40 -10 -45 5 -9
-174 -4 -241 6 -22 3 -44 19 -74 55 l-42 50 -134 -3 c-73 -2 -130 0 -126 3 4
3 61 16 127 28 66 12 129 23 140 26 15 3 32 -10 65 -50 l45 -53 93 -1 c50 -1
95 -1 100 -2 4 -1 13 17 20 40 l14 41 28 -16 c35 -21 55 -14 81 31 23 39 27
40 64 23 22 -10 29 -8 50 12 14 13 34 47 45 76 22 61 75 310 85 399 12 121 28
225 35 225 3 0 14 -17 23 -39z m-1875 -22 c28 -10 30 -12 20 -40 -7 -20 -17
-29 -31 -29 -39 0 -48 13 -36 48 6 18 12 32 13 32 2 0 17 -5 34 -11z m82 -16
c-1 -16 -50 -68 -50 -53 0 35 13 60 31 60 11 0 19 -3 19 -7z m-87 -102 c-2
-41 -5 -44 -42 -36 -33 7 -37 18 -22 59 9 21 14 23 38 17 24 -7 28 -13 26 -40z
m-993 -13 c0 -33 -34 -238 -40 -238 -9 0 -30 47 -30 68 0 25 54 182 63 182 4
0 7 -6 7 -12z m978 -43 c1 -1 -5 -18 -15 -36 -10 -19 -19 -35 -19 -37 -1 -2
-13 0 -28 4 -28 7 -31 19 -16 58 8 22 13 25 42 19 18 -3 34 -7 36 -8z m-39
-91 c9 -8 -43 -54 -61 -54 -21 0 -22 8 -8 45 8 22 14 24 37 19 16 -4 30 -8 32
-10z m-39 -253 l67 -69 161 -38 c89 -20 162 -41 162 -45 0 -4 -8 -5 -17 -3
-58 12 -340 65 -403 75 -91 13 -101 20 -90 59 9 31 41 90 49 90 2 0 34 -31 71
-69z m-837 -49 c-5 -43 -9 -52 -26 -52 -17 0 -19 5 -13 32 6 32 34 83 42 76 2
-2 1 -28 -3 -56z m51 -1 c-5 -40 -10 -51 -23 -49 -20 4 -17 52 6 86 20 33 25
23 17 -37z m172 22 c-15 -87 -17 -93 -37 -93 -24 0 -25 27 -4 77 14 32 30 52
44 53 2 0 0 -17 -3 -37z m60 0 c-14 -81 -18 -93 -31 -93 -22 0 -27 17 -15 59
9 36 33 71 47 71 3 0 2 -17 -1 -37z m860 -150 c41 -3 74 -10 74 -16 0 -7 -39
-8 -112 -4 -62 4 -164 7 -225 7 -63 0 -113 4 -113 9 0 5 12 12 28 15 30 5 234
-1 348 -11z m870 -65 c-6 -33 -20 -48 -45 -48 -17 0 -7 60 12 72 28 18 40 9
33 -24z m-100 -4 c-3 -9 -6 -22 -6 -30 0 -19 -19 -18 -26 1 -9 22 3 45 22 45
11 0 14 -5 10 -16z m151 -31 c-3 -10 -5 -4 -5 12 0 17 2 24 5 18 2 -7 2 -21 0
-30z m-240 5 c-3 -8 -6 -5 -6 6 -1 11 2 17 5 13 3 -3 4 -12 1 -19z m273 -13
c0 -8 -4 -15 -10 -15 -5 0 -10 7 -10 15 0 8 5 15 10 15 6 0 10 -7 10 -15z
m-1440 -865 c0 -5 -14 -7 -32 -3 -46 8 -48 13 -5 13 21 0 37 -4 37 -10z m-160
-19 c0 -11 -117 -24 -133 -14 -7 5 3 10 28 14 63 10 105 10 105 0z m600 -18
c12 -3 10 -8 -9 -24 -17 -14 -39 -19 -80 -19 -71 0 -107 19 -41 21 l45 2 -55
7 c-82 12 -132 12 -125 0 3 -5 15 -10 26 -10 10 0 19 -4 19 -10 0 -5 9 -10 21
-10 11 0 17 -4 14 -10 -4 -6 6 -10 24 -10 34 0 50 -16 24 -23 -10 -3 9 -6 42
-7 69 -2 106 -11 106 -25 -1 -14 -691 -13 -691 1 0 21 29 24 203 23 173 -1
243 9 219 33 -17 17 -88 27 -197 28 -124 2 -101 18 26 19 66 1 88 4 92 16 5
12 32 13 164 9 87 -3 165 -8 173 -11z m-820 -16 c14 -4 43 -9 65 -13 l40 -6
-48 -15 c-45 -13 -53 -12 -109 7 -51 18 -74 20 -139 14 -42 -3 -83 -2 -91 2
-26 18 213 26 282 11z m1015 -37 c-16 -4 -46 -8 -65 -8 -32 0 -33 1 -10 8 14
4 43 8 65 8 38 0 39 -1 10 -8z m-600 -10 c7 -11 -46 -12 -145 0 -63 7 -62 7
37 8 59 1 104 -2 108 -8z m408 3 c-13 -2 -33 -2 -45 0 -13 2 -3 4 22 4 25 0
35 -2 23 -4z m86 -29 c2 -2 -10 -4 -27 -4 -18 0 -32 5 -32 10 0 9 47 4 59 -6z
m-846 -9 c3 -14 -80 -18 -100 -5 -14 9 -14 10 -2 7 9 -3 31 -2 50 3 40 9 50 8
52 -5z m985 -72 c28 -3 52 -9 52 -14 0 -9 -198 -4 -208 6 -13 13 25 26 63 20
22 -3 64 -8 93 -12z m3479 -1175 c-3 -8 -6 -5 -6 6 -1 11 2 17 5 13 3 -3 4
-12 1 -19z m72 -241 c65 -232 66 -236 52 -221 -8 8 -121 418 -121 439 0 23 12
-16 69 -218z m-2830 -409 c1 -5 -3 -8 -9 -8 -5 0 -10 12 -9 28 0 24 1 25 9 7
5 -11 9 -23 9 -27z m-15 -103 c-4 -17 -10 -23 -16 -17 -6 6 -5 17 3 30 17 27
22 22 13 -13z m-64 -9 c0 -16 -26 -46 -40 -46 -5 0 -1 13 8 30 18 32 32 39 32
16z m30 -66 c0 -5 -7 -10 -16 -10 -8 0 -12 5 -9 10 3 6 10 10 16 10 5 0 9 -4
9 -10z m-92 -22 c6 -9 6 -21 0 -38 -10 -24 -10 -24 -18 -5 -18 44 -6 72 18 43z
m72 -27 c0 -6 -11 -23 -25 -38 -25 -29 -31 -21 -19 25 6 21 44 33 44 13z
m-130 -177 c0 -3 -11 -22 -25 -42 -29 -42 -32 -36 -9 14 14 29 34 46 34 28z
m2185 -29 c28 -13 25 -13 -55 -14 -47 -1 -100 -5 -118 -10 -17 -5 -32 -8 -32
-5 0 12 107 40 160 42 8 1 29 -5 45 -13z m336 -882 c23 -29 38 -56 35 -61 -3
-5 -1 -45 4 -88 7 -66 6 -85 -9 -119 l-17 -40 -103 100 c-56 55 -118 109 -137
120 -37 22 -42 36 -19 55 9 7 13 20 10 28 -3 8 9 55 26 104 l32 89 69 -68 c38
-37 87 -91 109 -120z"/>
<path d="M7164 7778 c-17 -12 -48 -46 -68 -75 -21 -30 -43 -52 -49 -50 -7 2
-20 0 -29 -5 -12 -5 -37 -3 -73 7 -30 9 -59 14 -64 11 -5 -4 -15 -23 -21 -44
-21 -64 -71 -138 -113 -166 -23 -14 -34 -26 -27 -26 25 1 56 22 129 88 38 34
73 62 78 62 4 0 28 -14 52 -30 51 -35 98 -39 128 -10 12 11 36 47 54 80 33 63
83 114 103 107 38 -15 128 -29 150 -23 42 10 32 32 -13 28 -29 -3 -60 5 -119
32 -44 20 -81 36 -83 36 -3 0 -18 -10 -35 -22z"/>
<path d="M8247 7073 c-63 -60 -166 -157 -230 -216 -106 -98 -195 -197 -256
-285 -14 -20 -24 -50 -25 -73 l-1 -40 -225 -124 c-124 -68 -234 -131 -245
-139 -17 -12 -20 -26 -20 -93 0 -43 -3 -83 -8 -90 -4 -6 -56 -28 -116 -48
-126 -42 -128 -44 -155 -179 -9 -44 -21 -86 -28 -93 -6 -8 -52 -42 -102 -76
-50 -34 -136 -108 -192 -163 -86 -87 -110 -105 -163 -124 -61 -23 -79 -39
-111 -103 -7 -15 -37 -46 -66 -68 -29 -22 -56 -49 -59 -59 -7 -22 -37 -34 -65
-25 -10 3 -33 -1 -49 -9 -17 -9 -39 -16 -51 -16 -12 0 -19 -4 -16 -9 8 -12
137 -16 353 -12 174 3 231 -3 187 -20 -10 -4 -31 -8 -46 -8 -68 -2 -101 -46
-55 -75 34 -21 326 -59 384 -50 59 10 83 7 106 -14 11 -10 57 -20 130 -28 202
-23 182 -33 -73 -33 -230 -1 -397 -13 -429 -30 -23 -14 26 -19 220 -25 161 -5
199 -10 199 -26 0 -13 -59 -20 -169 -20 -72 0 -101 3 -91 10 10 7 -21 10 -96
10 -139 0 -267 11 -257 21 4 4 49 16 98 25 50 9 94 21 100 26 5 4 -97 8 -226
8 -264 0 -288 -5 -256 -53 17 -27 64 -41 180 -52 62 -7 74 -19 27 -29 -34 -6
-48 -29 -31 -50 8 -10 70 -15 253 -20 260 -7 338 -13 338 -27 0 -5 -44 -9 -98
-9 -143 0 -312 -12 -312 -22 0 -4 42 -8 93 -9 50 0 110 -4 132 -8 l40 -7 -33
-18 c-27 -14 -33 -22 -30 -44 5 -41 38 -52 158 -51 103 1 104 2 55 13 -67 16
-44 26 53 25 61 -1 88 3 111 17 29 17 32 17 113 -6 54 -15 123 -25 198 -29 66
-4 115 -10 115 -16 0 -6 -54 -12 -132 -15 -135 -5 -171 -16 -145 -42 9 -9 77
-9 299 0 159 7 299 15 312 19 23 6 23 7 5 14 -17 6 -16 8 9 18 21 8 34 8 50
-1 12 -6 54 -12 92 -13 39 -1 72 -3 75 -5 3 -1 -17 -7 -43 -13 -27 -7 -48 -16
-47 -22 1 -16 148 -10 211 8 104 31 166 94 89 91 -19 -1 -102 -4 -185 -7 -83
-4 -156 -2 -164 3 -16 9 5 17 63 22 37 4 44 23 14 41 -28 18 -448 36 -448 19
0 -6 27 -13 61 -17 33 -4 58 -9 55 -12 -3 -3 -98 -5 -212 -4 -163 1 -211 5
-228 16 -11 8 -43 15 -71 16 -27 0 -59 4 -70 8 -16 7 -14 9 14 14 19 4 71 7
116 7 113 0 173 9 180 28 15 40 -7 43 -361 45 -273 2 -345 5 -369 16 -27 14
-5 16 245 22 560 15 699 15 705 1 10 -27 -7 -35 -69 -29 -66 6 -99 -4 -80 -23
19 -19 117 -22 329 -12 145 7 205 7 220 -1 20 -11 20 -11 0 -15 -106 -18 -29
-31 195 -31 240 0 272 7 280 57 l5 34 44 -32 c51 -37 72 -37 179 5 73 29 98
47 88 64 -4 6 -114 10 -325 11 -316 0 -399 8 -408 37 -3 8 71 12 264 15 230 4
276 8 322 24 30 10 56 24 58 31 3 7 -24 25 -63 43 -38 17 -76 38 -86 46 -21
20 -58 12 -102 -20 -22 -17 -37 -22 -51 -16 -11 4 -74 11 -140 15 -178 10
-426 33 -432 38 -7 7 98 16 287 22 165 6 165 6 256 45 l91 40 44 -19 c24 -11
70 -22 102 -26 62 -8 82 1 98 42 6 16 23 26 66 38 32 9 75 20 96 26 20 5 37
14 37 19 0 10 -5 12 -125 36 -46 9 -119 35 -172 60 l-93 44 0 51 c0 28 -6 74
-14 102 -10 35 -16 131 -20 297 -5 257 -19 357 -57 432 -10 20 -19 53 -19 71
0 19 -7 40 -15 47 -19 16 -19 60 0 305 21 276 20 307 -10 343 -31 37 -31 46 0
151 14 47 25 100 25 118 0 31 -2 33 -34 33 -29 0 -49 -14 -149 -107z m-138
-1077 c-14 -14 -168 -110 -212 -132 -146 -74 -168 -116 -255 -479 l-10 -40 -1
47 c-1 26 -6 59 -12 75 l-12 28 -9 -41 c-9 -43 -58 -103 -58 -71 0 9 -5 19
-12 23 -8 5 -9 0 -6 -14 7 -27 2 -27 -39 -2 -18 11 -35 31 -39 45 -3 14 -11
25 -16 25 -11 0 -6 -63 8 -107 9 -33 -18 -30 -58 8 -18 16 -64 46 -103 65 -69
34 -72 34 -230 40 -88 3 -186 11 -218 19 -32 8 -61 15 -63 15 -2 0 -4 3 -4 8
0 4 22 5 49 4 27 -2 116 6 198 19 198 30 214 29 299 -14 82 -43 113 -46 155
-14 22 16 44 22 79 21 l48 0 32 100 c59 182 105 243 208 271 64 18 194 68 232
90 23 13 59 21 49 11z m-479 -685 c0 -5 -9 -19 -20 -32 l-21 -24 16 33 c15 31
25 41 25 23z m328 -618 c79 -6 116 -23 49 -23 -83 0 -247 14 -247 21 0 12 32
18 75 13 22 -3 77 -7 123 -11z m-213 -243 c-3 -5 -25 -10 -48 -9 -33 0 -38 2
-22 9 28 12 78 12 70 0z"/>
<path d="M6747 7043 c-90 -29 -116 -42 -160 -82 -51 -47 -53 -48 -118 -47 -60
2 -69 5 -112 40 -45 36 -49 38 -99 31 -99 -12 -179 -27 -174 -32 3 -3 49 -9
102 -13 l97 -7 51 -56 c28 -30 67 -74 87 -96 20 -23 44 -41 53 -41 22 0 53 32
138 143 63 80 74 90 157 131 49 25 92 50 96 56 8 14 6 13 -118 -27z"/>
<path d="M4486 6541 c-4 -5 3 -15 15 -21 18 -10 20 -9 17 6 -4 20 -23 30 -32
15z"/>
<path d="M4573 6518 c-31 -10 -45 -28 -23 -28 6 0 70 -34 141 -75 72 -41 133
-75 136 -75 12 0 -35 45 -120 117 -48 40 -91 73 -95 72 -4 -1 -22 -6 -39 -11z"/>
<path d="M5538 4728 c-74 -107 -79 -109 -170 -53 -31 19 -61 35 -68 35 -11 0
-89 -158 -175 -353 -37 -85 -41 -90 -122 -150 l-84 -62 -81 -155 c-44 -85 -93
-166 -109 -180 -34 -31 -83 -152 -66 -161 7 -4 39 -12 72 -19 137 -27 156 -33
152 -44 -4 -12 -14 -14 -237 -51 -92 -15 -160 -31 -169 -40 -13 -12 -13 -15 0
-19 13 -4 301 -26 342 -26 9 0 17 -5 17 -11 0 -7 -11 -8 -30 -4 -19 4 -30 3
-30 -4 0 -13 5 -13 125 -16 78 -1 86 0 61 10 l-29 12 29 6 c16 3 41 -1 56 -9
15 -8 44 -18 65 -23 38 -9 38 -9 -17 -10 -50 -1 -57 -4 -71 -30 -13 -23 -28
-31 -68 -40 -28 -6 -75 -16 -103 -23 l-53 -11 35 -15 c48 -20 24 -26 -58 -13
-55 9 -83 8 -143 -5 -70 -14 -99 -27 -87 -39 2 -3 43 -10 89 -16 46 -5 95 -12
109 -14 14 -3 63 -8 110 -12 79 -6 84 -5 71 10 -12 15 -10 17 22 17 48 0 97
-11 97 -21 0 -5 -10 -9 -22 -9 -12 0 -19 -2 -16 -5 3 -3 86 -9 185 -13 l180
-8 75 -37 c57 -28 86 -37 124 -36 67 1 106 17 44 18 -91 2 -72 19 26 23 93 5
126 1 97 -9 -7 -3 -13 -8 -13 -12 0 -5 33 -2 73 5 147 26 273 28 374 5 104
-24 141 -26 195 -11 41 12 101 57 93 70 -3 5 -58 8 -123 8 -108 0 -348 13
-819 43 l-183 12 0 37 c0 90 44 251 106 387 64 142 197 289 315 349 l50 25 -6
-23 c-10 -39 -10 -107 -1 -240 l8 -128 -48 -1 c-45 -1 -46 -2 -17 -9 56 -13
78 -35 107 -108 33 -84 129 -247 165 -279 26 -22 29 -23 256 -20 197 2 230 4
230 17 0 9 -11 16 -25 18 -14 2 -39 10 -56 17 -24 11 -193 45 -226 45 -14 0
-9 30 12 70 22 43 66 80 121 103 50 20 82 64 76 102 -3 16 -95 253 -205 525
-173 429 -204 497 -229 512 -15 10 -35 18 -44 18 -19 0 -146 81 -207 133 -67
56 -79 52 -154 -55z m-373 -1448 c-28 -12 -55 -12 -55 0 0 6 17 10 38 9 30 0
33 -2 17 -9z m88 -7 c-7 -2 -21 -2 -30 0 -10 3 -4 5 12 5 17 0 24 -2 18 -5z"/>
<path d="M7857 4584 c-4 -4 -46 -10 -94 -14 l-88 -7 118 -2 c91 -1 118 2 115
12 -5 14 -40 22 -51 11z"/>
<path d="M7430 4550 c-8 -5 -27 -10 -42 -10 -16 0 -28 -5 -28 -11 0 -8 13 -10
38 -5 20 3 53 6 72 6 l35 1 -25 14 c-30 17 -31 17 -50 5z"/>
<path d="M8460 4500 c-26 -3 -39 -9 -30 -12 32 -14 92 -18 141 -12 49 7 51 8
28 20 -25 14 -65 15 -139 4z"/>
<path d="M1670 4370 c-14 -4 -40 -8 -58 -9 -19 -1 -31 -5 -27 -11 4 -6 77 -10
186 -10 113 0 179 4 179 10 0 10 -13 11 -135 15 -33 2 -73 5 -90 8 -16 3 -41
2 -55 -3z"/>
<path d="M4792 4361 c-9 -5 8 -10 46 -14 64 -7 132 1 132 14 0 11 -161 11
-178 0z"/>
<path d="M4730 4241 c0 -11 36 -21 80 -21 44 0 80 10 80 21 0 5 -36 9 -80 9
-44 0 -80 -4 -80 -9z"/>
<path d="M4478 4168 c-32 -11 -58 -25 -58 -29 0 -5 71 -9 158 -9 155 0 187 11
77 25 -27 4 -65 13 -84 21 -18 8 -34 14 -35 13 0 0 -27 -10 -58 -21z"/>
<path d="M1975 4140 c-33 -10 -75 -19 -92 -19 -18 -1 -33 -5 -33 -11 0 -11
150 -3 194 11 18 5 44 5 71 -2 23 -6 55 -9 71 -7 24 2 18 7 -39 26 -78 26 -91
26 -172 2z"/>
<path d="M3746 4061 c-16 -17 -14 -19 30 -25 68 -9 194 -7 194 3 0 5 -39 12
-87 16 -49 4 -95 11 -104 16 -11 6 -22 3 -33 -10z"/>
<path d="M2624 4041 c-46 -11 -58 -21 -44 -35 16 -16 640 -23 640 -7 0 8 -77
11 -257 12 -142 1 -271 5 -288 9 l-30 8 33 1 c19 1 31 5 27 11 -7 11 -35 11
-81 1z"/>
<path d="M3400 4020 c-15 -5 27 -8 105 -7 109 0 120 1 65 7 -85 10 -139 10
-170 0z"/>
<path d="M4325 3650 c-103 -4 -147 -11 -210 -32 -44 -15 -93 -30 -108 -33 -16
-3 -27 -11 -24 -18 5 -15 220 -30 262 -17 17 4 77 11 135 15 206 12 287 36
199 58 -19 5 -51 15 -72 23 -20 8 -41 13 -45 12 -4 -1 -65 -5 -137 -8z"/>
<path d="M4440 3449 c-31 -6 -29 -7 17 -8 28 0 58 -4 67 -7 9 -3 16 -2 16 4 0
13 -55 19 -100 11z"/>
<path d="M4368 3443 c6 -2 18 -2 25 0 6 3 1 5 -13 5 -14 0 -19 -2 -12 -5z"/>
<path d="M4670 3360 c-16 -5 13 -8 80 -8 67 0 96 3 80 8 -14 4 -50 8 -80 8
-30 0 -66 -4 -80 -8z"/>
<path d="M6446 3322 c-9 -2 -16 -8 -16 -13 0 -12 137 -12 144 0 6 9 -96 19
-128 13z"/>
<path d="M4140 3280 c-24 -5 0 -8 75 -9 74 0 105 2 95 9 -17 11 -118 11 -170
0z"/>
<path d="M4696 3161 c8 -9 111 -31 141 -31 25 0 13 16 -20 28 -40 14 -136 16
-121 3z"/>
<path d="M5070 3102 c0 -15 26 -22 78 -22 32 -1 60 -9 87 -25 31 -19 54 -25
102 -25 34 0 64 4 68 9 3 5 -21 22 -52 38 -51 25 -71 28 -170 31 -70 2 -113 0
-113 -6z"/>
<path d="M5840 3093 c-74 -17 -80 -21 -60 -33 21 -13 360 -13 360 0 0 6 -9 10
-20 10 -10 0 -42 9 -70 20 -59 23 -120 24 -210 3z"/>
<path d="M6375 3045 c-29 -13 -27 -13 43 -14 70 -1 95 10 50 23 -35 9 -60 7
-93 -9z"/>
<path d="M5531 3021 c-28 -18 63 -31 244 -36 117 -4 173 -2 160 4 -11 5 -71
10 -133 10 -76 1 -124 6 -149 16 -39 17 -100 20 -122 6z"/>
<path d="M4305 2988 c-73 -37 -73 -37 -55 -49 19 -13 474 -5 509 8 23 9 22 11
-31 41 l-55 32 -154 0 c-152 -1 -155 -1 -214 -32z"/>
</g>
</svg>
