<svg width="40" height="40" viewBox="0 0 40 40" fill="none" xmlns="http://www.w3.org/2000/svg">
<path d="M12.001 11.5H28.0029C29.2335 11.5004 30.4464 11.8243 31.5342 12.4443C32.6222 13.0645 33.5531 13.9624 34.2402 15.0615C34.9274 16.1608 35.3495 17.4261 35.4668 18.7441C35.5841 20.0623 35.3922 21.3906 34.9102 22.6094C34.4282 23.828 33.6715 24.8979 32.71 25.7256C31.7485 26.5532 30.6119 27.1138 29.4023 27.3594C28.1931 27.6049 26.9454 27.5286 25.7695 27.1377C24.5934 26.7466 23.5227 26.0516 22.6553 25.1113L22.5068 24.9502H17.4932L17.3447 25.1113C16.4772 26.0517 15.4067 26.7466 14.2305 27.1377C13.0544 27.5287 11.8062 27.6041 10.5967 27.3584C9.38714 27.1126 8.25042 26.5524 7.28906 25.7246C6.32759 24.8966 5.57063 23.8263 5.08887 22.6074C4.6071 21.3884 4.41658 20.0604 4.53418 18.7422C4.6518 17.424 5.07409 16.1588 5.76172 15.0596C6.44926 13.9606 7.37945 13.0622 8.46777 12.4424C9.55599 11.8226 10.7701 11.4998 12.001 11.5ZM11.4004 14.3252C11.0987 14.3253 10.8159 14.4527 10.6123 14.6689C10.4097 14.8843 10.3008 15.1707 10.3008 15.4629V17.7246H8.20117C7.89931 17.7246 7.61572 17.853 7.41211 18.0693C7.20972 18.2846 7.10063 18.5703 7.10059 18.8623V20.1377C7.10063 20.4297 7.20972 20.7154 7.41211 20.9307C7.61572 21.147 7.89932 21.2754 8.20117 21.2754H10.3008V23.5371C10.3008 23.8293 10.4097 24.1157 10.6123 24.3311C10.8159 24.5473 11.0987 24.6747 11.4004 24.6748H12.6006C12.9023 24.6748 13.1851 24.5473 13.3887 24.3311C13.5913 24.1157 13.7002 23.8293 13.7002 23.5371V21.2754H15.8008C16.1025 21.2753 16.3854 21.1469 16.5889 20.9307C16.7913 20.7154 16.9003 20.4297 16.9004 20.1377V18.8623C16.9003 18.5703 16.7913 18.2846 16.5889 18.0693C16.3854 17.8531 16.1025 17.7247 15.8008 17.7246H13.7002V15.4629C13.7002 15.1707 13.5913 14.8843 13.3887 14.6689C13.1851 14.4527 12.9023 14.3252 12.6006 14.3252H11.4004ZM28.166 19.6289C27.7056 19.4263 27.197 19.3728 26.7061 19.4766C26.2152 19.5803 25.7683 19.8359 25.4209 20.2051C25.0741 20.5737 24.8414 21.0399 24.7471 21.543C24.6528 22.0464 24.7002 22.569 24.8857 23.0449C25.0713 23.521 25.3876 23.9326 25.7988 24.2246C26.2104 24.5168 26.6979 24.6747 27.1992 24.6748C27.8723 24.6748 28.5114 24.3907 28.9775 23.8955C29.4427 23.4012 29.6992 22.7365 29.6992 22.0498C29.6992 21.5372 29.556 21.0342 29.2852 20.6035C29.0142 20.1726 28.6261 19.8314 28.166 19.6289ZM31.3662 14.5293C30.9057 14.3266 30.3964 14.2732 29.9053 14.377C29.4147 14.4807 28.9684 14.7355 28.6211 15.1045C28.274 15.4733 28.0405 15.9399 27.9463 16.4434C27.8521 16.9466 27.9005 17.4685 28.0859 17.9443C28.2715 18.4204 28.5878 18.833 28.999 19.125C29.4106 19.4171 29.8981 19.5752 30.3994 19.5752C31.0725 19.5752 31.7116 19.2902 32.1777 18.7949C32.6427 18.3007 32.8994 17.6367 32.8994 16.9502C32.8994 16.4375 32.7562 15.9336 32.4854 15.5029C32.2144 15.0722 31.8261 14.7318 31.3662 14.5293Z" fill="white" stroke="black"/>
</svg>
